<?xml version="1.0" standalone="no"?>
<!DOCTYPE svg PUBLIC "-//W3C//DTD SVG 20010904//EN"
 "http://www.w3.org/TR/2001/REC-SVG-20010904/DTD/svg10.dtd">
<svg version="1.0" xmlns="http://www.w3.org/2000/svg"
 width="512.000000pt" height="512.000000pt" viewBox="0 0 512.000000 512.000000"
 preserveAspectRatio="xMidYMid meet">
<metadata>
Created by potrace 1.14, written by Peter Selinger 2001-2017
</metadata>
<g transform="translate(0.000000,512.000000) scale(0.100000,-0.100000)"
fill="#000000" stroke="none">
<path d="M5 5108 c-3 -7 -4 -1158 -3 -2558 l3 -2545 2555 0 2555 0 0 2555 0
2555 -2553 3 c-2037 2 -2554 0 -2557 -10z m3594 -1503 c202 -33 396 -125 534
-254 l48 -45 -168 -168 c-92 -92 -172 -168 -176 -168 -5 0 -27 15 -48 34 -86
73 -236 126 -359 126 -153 0 -290 -58 -401 -169 -120 -120 -169 -237 -169
-406 0 -163 51 -285 166 -401 174 -176 438 -219 661 -109 l73 36 0 60 0 59
-210 0 -210 0 0 240 0 240 455 0 455 0 0 -590 0 -590 -245 0 -245 0 0 26 c0
21 -4 25 -17 19 -10 -4 -58 -15 -108 -26 -188 -39 -418 -18 -604 57 -87 35
-253 134 -281 168 -8 10 -90 257 -182 550 l-167 531 25 75 c163 487 663 787
1173 705z m-1385 -482 c153 -473 337 -1048 453 -1418 31 -99 58 -186 61 -192
3 -10 -51 -13 -250 -13 l-254 0 -43 130 -42 130 -332 -2 -332 -3 -44 -127 -43
-128 -257 0 -258 0 278 818 c153 449 315 924 360 1055 l81 237 232 0 232 0
158 -487z"/>
<path d="M1732 2507 c-45 -133 -82 -248 -82 -254 0 -10 40 -13 165 -13 96 0
165 4 165 9 0 11 -160 501 -163 501 -1 0 -39 -109 -85 -243z"/>
</g>
</svg>
